<?xml version="1.0" encoding="UTF-8"?>
<svg id="Layer_2" data-name="Layer 2" xmlns="http://www.w3.org/2000/svg" xmlns:xlink="http://www.w3.org/1999/xlink" viewBox="0 0 1024 1024">
  <defs>
    <style>
      .cls-1 {
        fill: url(#linear-gradient-12);
      }

      .cls-1, .cls-2, .cls-3, .cls-4, .cls-5, .cls-6, .cls-7, .cls-8, .cls-9, .cls-10, .cls-11, .cls-12, .cls-13 {
        stroke-width: 0px;
      }

      .cls-2 {
        fill: url(#linear-gradient);
      }

      .cls-3 {
        fill: url(#linear-gradient-6);
      }

      .cls-4 {
        fill: url(#linear-gradient-11);
      }

      .cls-5 {
        fill: url(#linear-gradient-5);
      }

      .cls-6 {
        fill: #fff;
      }

      .cls-7 {
        fill: url(#linear-gradient-2);
      }

      .cls-8 {
        fill: url(#linear-gradient-7);
      }

      .cls-9 {
        fill: url(#linear-gradient-3);
      }

      .cls-10 {
        fill: url(#linear-gradient-9);
      }

      .cls-11 {
        fill: url(#linear-gradient-8);
      }

      .cls-12 {
        fill: url(#linear-gradient-10);
      }

      .cls-13 {
        fill: url(#linear-gradient-4);
      }
    </style>
    <linearGradient id="linear-gradient" x1="342.28" y1="310.18" x2="342.28" y2="813.02" gradientUnits="userSpaceOnUse">
      <stop offset="0" stop-color="#4ee2fe"/>
      <stop offset="1" stop-color="#0e6aff"/>
    </linearGradient>
    <linearGradient id="linear-gradient-2" x1="681.72" y1="310.18" x2="681.72" y2="813.02" xlink:href="#linear-gradient"/>
    <linearGradient id="linear-gradient-3" x1="512" y1="310.18" x2="512" y2="813.02" xlink:href="#linear-gradient"/>
    <linearGradient id="linear-gradient-4" x1="512" y1="321.4" x2="512" y2="822.41" xlink:href="#linear-gradient"/>
    <linearGradient id="linear-gradient-5" x1="375.41" y1="360.3" x2="375.41" y2="749.41" xlink:href="#linear-gradient"/>
    <linearGradient id="linear-gradient-6" x1="233.55" y1="360.3" x2="233.55" y2="749.41" xlink:href="#linear-gradient"/>
    <linearGradient id="linear-gradient-7" x1="648.6" y1="360.3" x2="648.6" y2="749.41" xlink:href="#linear-gradient"/>
    <linearGradient id="linear-gradient-8" x1="790.45" y1="360.3" x2="790.45" y2="749.41" xlink:href="#linear-gradient"/>
    <linearGradient id="linear-gradient-9" x1="512" y1="310.18" x2="512" y2="813.02" xlink:href="#linear-gradient"/>
    <linearGradient id="linear-gradient-10" x1="329.35" y1="321.4" x2="329.35" y2="822.41" xlink:href="#linear-gradient"/>
    <linearGradient id="linear-gradient-11" x1="694.65" y1="321.4" x2="694.65" y2="822.41" xlink:href="#linear-gradient"/>
    <linearGradient id="linear-gradient-12" x1="512" y1="321.4" x2="512" y2="822.41" xlink:href="#linear-gradient"/>
  </defs>
  <g id="app_icon" data-name="app icon">
    <g id="app_icon-2" data-name="app icon">
      <rect class="cls-6" width="1024" height="1024"/>
      <g id="logomark">
        <circle class="cls-2" cx="342.28" cy="336.14" r="59.38"/>
        <circle class="cls-7" cx="681.72" cy="336.14" r="59.38"/>
        <path class="cls-9" d="M512,192c-32.74,0-59.38,26.64-59.38,59.38s26.64,59.39,59.38,59.39,59.38-26.64,59.38-59.39-26.64-59.38-59.38-59.38Z"/>
        <path class="cls-13" d="M512,713.66c-32.63,0-59.17,26.54-59.17,59.17s26.54,59.17,59.17,59.17,59.17-26.54,59.17-59.17-26.54-59.17-59.17-59.17Z"/>
        <circle class="cls-5" cx="375.41" cy="512" r="40.69"/>
        <circle class="cls-3" cx="233.55" cy="512" r="40.69"/>
        <path class="cls-8" d="M648.6,471.31c-22.44,0-40.69,18.25-40.69,40.69s18.25,40.69,40.69,40.69,40.69-18.25,40.69-40.69-18.25-40.69-40.69-40.69Z"/>
        <path class="cls-11" d="M790.45,471.31c-22.43,0-40.69,18.25-40.69,40.69s18.25,40.69,40.69,40.69,40.69-18.25,40.69-40.69-18.25-40.69-40.69-40.69Z"/>
        <circle class="cls-10" cx="512" cy="419.75" r="52.59"/>
        <g>
          <path class="cls-12" d="M329.35,640.56c-25.15,0-45.62,20.46-45.62,45.61s20.47,45.62,45.62,45.62,45.62-20.47,45.62-45.62-20.47-45.61-45.62-45.61Z"/>
          <path class="cls-4" d="M694.65,640.56c-25.15,0-45.62,20.46-45.62,45.61s20.47,45.62,45.62,45.62,45.61-20.47,45.61-45.62-20.46-45.61-45.61-45.61Z"/>
          <circle class="cls-1" cx="512" cy="598.31" r="45.62"/>
        </g>
      </g>
    </g>
  </g>
</svg>